<svg width="300" height="26" viewBox="0 0 300 26" fill="none" xmlns="http://www.w3.org/2000/svg">
<path d="M157.241 11.7092V12.596H158.659V13.7851L159.253 13.1603H161.4V12.0115C161.4 12.0115 164.409 11.9914 167.878 11.9712V12.9789H166.191L165.635 12.3945H165.022C164.754 12.1728 164.39 12.0317 164.006 12.0317C163.106 12.0317 162.377 12.7975 162.377 13.7448C162.377 14.692 163.106 15.4578 164.006 15.4578C164.696 15.4578 165.29 14.9943 165.52 14.3494H171.021C171.251 14.9943 171.845 15.4578 172.535 15.4578C173.436 15.4578 174.164 14.692 174.164 13.7448C174.164 13.2006 173.915 12.6968 173.532 12.3945V12.2534H173.34C173.11 12.1123 172.822 12.0317 172.535 12.0317C172.247 12.0317 171.979 12.1123 171.73 12.2534H170.983L170.427 12.9991H169.085C169.085 12.9991 169.009 12.4751 168.97 11.9914C173.493 11.9712 178.4 11.9712 178.457 12.0317C178.572 12.1526 178.457 14.7726 178.457 14.7726H181.064V12.3743H181.562V13.5634H185.587V11.8503L187.848 12.7371V13.6238H189.4L189.899 13.0998H191.106V12.0922H193.425V12.8378H192.716V14.692H206.4V12.8378H205.691V12.1728H206.898V13.5029H209.294L209.716 13.0595L210.348 13.4223V14.3091H211.556V13.2006H210.712L210.08 12.5355V12.0115H212.821L213.357 11.4472H218.532V12.9588H216.845L216.29 12.3743H215.676C215.408 12.1526 215.044 12.0115 214.66 12.0115C213.76 12.0115 213.031 12.7774 213.031 13.7246C213.031 14.6718 213.76 15.4377 214.66 15.4377C215.35 15.4377 215.945 14.9741 216.175 14.3292H221.675C221.905 14.9741 222.499 15.4377 223.189 15.4377C224.09 15.4377 224.818 14.6718 224.818 13.7246C224.818 13.1805 224.569 12.6766 224.186 12.3743V12.2332H223.994C223.764 12.0922 223.477 12.0115 223.189 12.0115C222.902 12.0115 222.633 12.0922 222.384 12.2332H221.637L221.081 12.9789H219.739C219.739 12.9789 219.605 11.9712 219.605 11.4674H225.297L226.486 12.7169H228.345V13.8052H228.9V12.6161H229.763L230.031 12.8177H230.395V11.6488H230.031L229.763 11.9511H229.686C229.686 11.9511 229.763 10.9232 229.763 11.0643V3.48654H229.207V0.886713H221.177V0.0805664H219.126V0.886713H216.654V1.91455H215.81V0.967328H212.207V0.0805664H210.157V0.967328H205.442V1.85409H203.602V0.967328H203.391V0.0805664H201.341V0.967328H194.92V0.0805664H192.869V0.967328H186.238V0.0805664H184.188V0.967328H177.345V0.0805664H175.295V0.967328H168.453V0.0805664H166.402V0.967328H158.295V3.26485H158.027V11.0442H158.583V11.7092H157.241ZM226.332 4.3733H228.019V6.81189H226.332V4.3733ZM226.332 3.60746H228.019V3.97023H226.332V3.60746ZM221.253 5.38098H223.63V7.85988H221.253V5.38098ZM215.983 5.38098H218.359V7.85988H215.983V5.38098ZM209.946 5.44144H213.357V7.63819H209.946V5.44144ZM205.844 5.44144H209.256V7.63819H205.844V5.44144ZM201.551 5.44144H204.963V7.63819H201.551V5.44144ZM197.45 5.44144H200.861V7.63819H197.45V5.44144ZM193.214 5.44144H196.626V7.63819H193.214V5.44144ZM189.113 5.44144H192.524V7.63819H189.113V5.44144ZM184.82 5.44144H188.231V7.63819H184.82V5.44144ZM180.719 5.44144H184.13V7.63819H180.719V5.44144ZM176.406 5.44144H179.818V7.63819H176.406V5.44144ZM172.305 5.44144H175.716V7.63819H172.305V5.44144ZM171.404 7.63819H167.993V5.44144H171.404V7.63819ZM163.911 5.44144H167.322V7.63819H163.911V5.44144ZM159.867 4.3733H161.553V6.81189H159.867V4.3733ZM159.867 3.60746H161.553V3.97023H159.867V3.60746Z" fill="#FFCA62"/>
<path d="M82.4194 11.7092V12.596H83.8377V13.7851L84.4318 13.1603H86.5783V12.0115C86.5783 12.0115 89.5873 11.9914 93.0562 11.9712V12.9789H91.3697L90.8139 12.3945H90.1814C89.9131 12.1728 89.549 12.0317 89.1657 12.0317C88.2649 12.0317 87.5366 12.7975 87.5366 13.7448C87.5366 14.692 88.2649 15.4578 89.1657 15.4578C89.8556 15.4578 90.4497 14.9943 90.6797 14.3494H96.1802C96.4102 14.9943 97.0043 15.4578 97.6943 15.4578C98.595 15.4578 99.3233 14.692 99.3233 13.7448C99.3233 13.2006 99.0742 12.6968 98.6909 12.3945V12.2534H98.4992C98.2692 12.1123 97.9817 12.0317 97.6943 12.0317C97.4068 12.0317 97.1385 12.1123 96.8893 12.2534H96.1419L95.5861 12.9991H94.2445C94.2445 12.9991 94.1678 12.4751 94.1295 11.9914C98.6525 11.9712 103.559 11.9712 103.616 12.0317C103.731 12.1526 103.616 14.7726 103.616 14.7726H106.223V12.3743H106.721V13.5634H110.746V11.8503L113.007 12.7371V13.6238H114.56L115.058 13.0998H116.266V12.0922H118.585V12.8378H117.875V14.692H131.56V12.8378H130.85V12.1728H132.058V13.5029H134.453L134.875 13.0595L135.508 13.4223V14.3091H136.715V13.2006H135.872L135.239 12.5355V12.0115H137.98L138.517 11.4472H143.691V12.9588H142.005L141.449 12.3743H140.836C140.567 12.1526 140.203 12.0115 139.82 12.0115C138.919 12.0115 138.191 12.7774 138.191 13.7246C138.191 14.6718 138.919 15.4377 139.82 15.4377C140.51 15.4377 141.104 14.9741 141.334 14.3292H146.834C147.064 14.9741 147.658 15.4377 148.348 15.4377C149.249 15.4377 149.977 14.6718 149.977 13.7246C149.977 13.1805 149.728 12.6766 149.345 12.3743V12.2332H149.153C148.923 12.0922 148.636 12.0115 148.348 12.0115C148.061 12.0115 147.793 12.0922 147.543 12.2332H146.796L146.24 12.9789H144.899C144.899 12.9789 144.764 11.9712 144.764 11.4674H150.457L151.645 12.7169H153.504V13.8052H154.06V12.6161H154.922L155.19 12.8177H155.555V11.6488H155.152L154.884 11.9511H154.807C154.807 11.9511 154.884 10.9232 154.884 11.0643V3.48654H154.328V0.886713H146.298V0.0805664H144.228V0.886713H141.755V1.91455H140.912V0.967328H137.328V0.0805664H135.278V0.967328H130.563V1.85409H128.723V0.967328H128.512V0.0805664H126.462V0.967328H120.041V0.0805664H117.99V0.967328H111.359V0.0805664H109.347V0.967328H102.505V0.0805664H100.454V0.967328H93.6312V0.0805664H91.5805V0.967328H83.4735V3.26485H83.186V11.0442H83.7418V11.7092H82.4194ZM151.492 4.3733H153.178V6.81189H151.492V4.3733ZM151.492 3.60746H153.178V3.97023H151.492V3.60746ZM146.432 5.38098H148.808V7.85988H146.432V5.38098ZM141.142 5.38098H143.519V7.85988H141.142V5.38098ZM135.105 5.44144H138.517V7.63819H135.105V5.44144ZM131.023 5.44144H134.434V7.63819H131.023V5.44144ZM126.711 5.44144H130.122V7.63819H126.711V5.44144ZM122.609 5.44144H126.021V7.63819H122.609V5.44144ZM118.374 5.44144H121.785V7.63819H118.374V5.44144ZM114.291 5.44144H117.703V7.63819H114.291V5.44144ZM109.979 5.44144H113.391V7.63819H109.979V5.44144ZM105.878 5.44144H109.289V7.63819H105.878V5.44144ZM101.566 5.44144H104.977V7.63819H101.566V5.44144ZM97.4643 5.44144H100.876V7.63819H97.4643V5.44144ZM96.5827 7.63819H93.1712V5.44144H96.5827V7.63819ZM89.0698 5.44144H92.4813V7.63819H89.0698V5.44144ZM85.0259 4.3733H86.7125V6.81189H85.0259V4.3733ZM85.0259 3.60746H86.7125V3.97023H85.0259V3.60746Z" fill="#FFCA62"/>
<path d="M5.85364 11.7092V12.596H7.27188V13.7851L7.866 13.1603H10.0125V12.0115C10.0125 12.0115 13.0215 11.9914 16.4904 11.9712V12.9789H14.8039L14.2481 12.3945H13.6348C13.3665 12.1728 13.0023 12.0317 12.619 12.0317C11.7182 12.0317 10.99 12.7975 10.99 13.7448C10.99 14.692 11.7182 15.4578 12.619 15.4578C13.309 15.4578 13.9031 14.9943 14.1331 14.3494H19.6336C19.8635 14.9943 20.4577 15.4578 21.1476 15.4578C22.0484 15.4578 22.7767 14.692 22.7767 13.7448C22.7767 13.2006 22.5275 12.6968 22.1442 12.3945V12.2534H21.9526C21.7226 12.1123 21.4351 12.0317 21.1476 12.0317C20.8601 12.0317 20.5918 12.1123 20.3427 12.2534H19.5952L19.0394 12.9991H17.6979C17.6979 12.9991 17.6212 12.4751 17.5829 11.9914C22.1059 11.9712 27.0122 11.9712 27.0697 12.0317C27.1847 12.1526 27.0697 14.7726 27.0697 14.7726H29.6762V12.3743H30.1745V13.5634H34.1993V11.8503L36.4608 12.7371V13.6238H38.0132L38.5115 13.0998H39.7189V12.0922H42.0379V12.8378H41.3096V14.692H54.9937V12.8378H54.2846V12.1728H55.492V13.5029H57.8877L58.3093 13.0595L58.9418 13.4223V14.3091H60.1492V13.2006H59.3059L58.6735 12.5355V12.0115H61.4141L61.9507 11.4472H67.1254V12.9588H65.4388L64.883 12.3743H64.2698C64.0014 12.1526 63.6373 12.0115 63.254 12.0115C62.3532 12.0115 61.6249 12.7774 61.6249 13.7246C61.6249 14.6718 62.3532 15.4377 63.254 15.4377C63.9439 15.4377 64.5381 14.9741 64.7681 14.3292H70.2494C70.4793 14.9741 71.0735 15.4377 71.7634 15.4377C72.6642 15.4377 73.3925 14.6718 73.3925 13.7246C73.3925 13.1805 73.1433 12.6766 72.76 12.3743V12.2332H72.5684C72.3384 12.0922 72.0509 12.0115 71.7634 12.0115C71.4759 12.0115 71.2076 12.0922 70.9585 12.2332H70.211L69.6552 12.9789H68.3137C68.3137 12.9789 68.1795 11.9712 68.1795 11.4674H73.8716L75.0599 12.7169H76.9189V13.8052H77.4747V12.6161H78.3372L78.6055 12.8177H78.9696V11.6488H78.6055L78.3372 11.9511H78.2605C78.2605 11.9511 78.3372 10.9232 78.3372 11.0643V3.48654H77.7814V0.886713H69.7511V0.0805664H67.7004V0.886713H65.228V1.91455H64.3848V0.967328H60.7817V0.0805664H58.731V0.967328H54.0163V1.85409H52.1764V0.967328H51.9656V0.0805664H49.9149V0.967328H43.4945V0.0805664H41.4438V0.967328H34.8125V0.0805664H32.7618V0.967328H25.9198V0.0805664H23.9074V0.967328H17.0654V0.0805664H15.0147V0.967328H6.90773V3.26485H6.62025V11.0442H7.19522V11.7092H5.85364ZM74.9257 4.3733H76.6123V6.81189H74.9257V4.3733ZM74.9257 3.60746H76.6123V3.97023H74.9257V3.60746ZM69.8661 5.38098H72.2426V7.85988H69.8661V5.38098ZM64.5764 5.38098H66.9529V7.85988H64.5764V5.38098ZM58.5585 5.44144H61.9699V7.63819H58.5585V5.44144ZM54.4571 5.44144H57.8685V7.63819H54.4571V5.44144ZM50.1449 5.44144H53.5563V7.63819H50.1449V5.44144ZM46.0435 5.44144H49.4549V7.63819H46.0435V5.44144ZM41.8271 5.44144H45.2385V7.63819H41.8271V5.44144ZM37.7257 5.44144H41.1371V7.63819H37.7257V5.44144ZM33.4135 5.44144H36.8249V7.63819H33.4135V5.44144ZM29.3121 5.44144H32.7235V7.63819H29.3121V5.44144ZM24.9999 5.44144H28.4113V7.63819H24.9999V5.44144ZM20.9176 5.44144H24.3291V7.63819H20.9176V5.44144ZM20.0169 7.63819H16.6054V5.44144H20.0169V7.63819ZM12.504 5.44144H15.9155V7.63819H12.504V5.44144ZM8.46013 4.3733H10.1467V6.81189H8.46013V4.3733ZM8.46013 3.60746H10.1467V3.97023H8.46013V3.60746Z" fill="#FFCA62"/>
<path d="M230.875 11.7899V12.6767L231.066 12.8983L231.334 12.9185L231.584 12.7976H231.852V12.8983H232.12V12.6767H232.024V12.4953H232.58V13.0797H233.194L233.155 13.6037L232.504 13.8053V14.551H233.366L233.845 13.6642H235.723V12.9991C235.8 13.0193 235.858 13.0596 235.934 13.0797C236.183 13.1805 236.452 13.2813 236.586 13.503C236.662 13.644 236.682 13.7851 236.701 13.9665C236.72 14.0874 236.72 14.2083 236.758 14.3293C236.873 14.6316 237.027 14.6517 237.276 14.6517H237.295C237.333 14.6517 237.352 14.6517 237.391 14.6517C237.448 14.6517 237.487 14.6719 237.544 14.6719C237.602 14.6719 237.659 14.6719 237.697 14.6517C237.774 14.6114 237.889 14.5308 237.927 14.43H238.062C238.387 14.8533 238.886 15.1153 239.422 15.1153C239.978 15.1153 240.457 14.8533 240.783 14.43H242.431V14.2486H241.971C242.01 14.2285 242.048 14.1882 242.048 14.1479C242.125 13.9262 242.048 13.5433 242.048 13.3216C242.048 13.1402 242.048 12.9588 242.048 12.7774C242.048 12.7976 242.048 12.8177 242.048 12.858C242.105 12.858 242.144 12.858 242.201 12.858C242.201 13.3014 242.24 13.7247 242.259 14.168C242.431 14.168 242.604 14.0874 242.776 14.1076C242.815 14.2285 242.93 14.43 243.064 14.4703C243.236 14.5308 243.505 14.4905 243.696 14.4703C243.984 14.4502 244.252 14.43 244.539 14.4502C244.75 14.4703 244.98 14.4502 245.191 14.4502C245.21 14.3494 245.21 14.2688 245.21 14.168H245.881V12.8379C245.939 12.8379 245.996 12.8379 246.073 12.8379C246.073 13.0193 246.073 13.2007 246.073 13.382C246.073 13.6037 245.977 13.9866 246.073 14.1882C246.13 14.3494 246.379 14.3494 246.533 14.3293C246.705 14.3091 246.973 14.3293 247.146 14.2486C247.453 14.7928 248.008 15.1556 248.66 15.1556C249.637 15.1556 250.423 14.3293 250.423 13.3014C250.423 13.12 250.404 12.9588 250.347 12.7976C250.423 12.6968 250.5 12.596 250.615 12.5557C250.634 12.8379 250.596 13.12 250.596 13.4022C250.596 13.5634 250.615 13.7448 250.596 13.906C250.672 13.906 250.749 13.8456 250.807 13.8254C250.807 13.9665 250.692 14.5913 250.96 14.4099C251.094 14.3091 251.171 14.0068 251.209 13.8254C251.228 13.6843 251.266 13.5433 251.286 13.4022C251.343 13.3216 251.381 13.2208 251.401 13.12V13.0999C251.477 12.8379 251.573 12.5154 251.573 12.2333C251.573 12.0317 251.477 11.8907 251.381 11.7496C251.381 11.7496 251.381 11.7496 251.381 11.7294C251.458 11.7697 251.554 11.8302 251.592 11.8705C251.726 12.0317 251.765 12.3139 251.707 12.5557C251.669 12.6968 251.631 12.8379 251.573 12.9588C251.496 13.1603 251.42 13.382 251.401 13.644C251.401 13.7045 251.401 13.765 251.381 13.8456C251.381 14.0874 251.362 14.43 251.209 14.551C251.094 14.6316 250.807 14.5913 250.615 14.4703C250.557 14.43 250.481 14.3696 250.481 14.289L250.385 14.2688C250.366 14.3696 250.442 14.4703 250.557 14.5711C250.692 14.6517 250.883 14.7122 251.037 14.7122C251.132 14.7122 251.209 14.692 251.266 14.6517C251.477 14.5106 251.477 14.1277 251.496 13.8657C251.496 13.7851 251.496 13.7247 251.496 13.6843C251.516 13.4425 251.592 13.241 251.669 13.0193C251.707 12.8782 251.765 12.7573 251.803 12.596C251.861 12.334 251.803 12.0116 251.669 11.8302C251.611 11.7697 251.516 11.7093 251.42 11.6488C251.381 11.6287 251.305 11.5884 251.247 11.5481C251.228 11.5279 251.228 11.5077 251.228 11.4674H252.167V14.5106H253.471V14.3897H271.084V11.3062H271.294V14.3494C271.294 14.3494 271.313 12.0519 271.294 11.3062H271.927C271.869 11.3667 271.812 11.4271 271.773 11.5077C271.869 11.5279 271.965 11.5279 272.08 11.5279C272.042 11.5481 272.003 11.5884 271.965 11.6085C271.869 11.669 271.754 11.7093 271.716 11.7899C271.563 11.9914 271.505 12.2937 271.582 12.5557C271.62 12.6968 271.658 12.8379 271.716 12.979C271.793 13.2007 271.85 13.4022 271.888 13.644C271.888 13.7045 271.888 13.765 271.888 13.8254C271.888 14.1076 271.908 14.4703 272.118 14.6114C272.176 14.6517 272.253 14.6719 272.348 14.6719C272.502 14.6719 272.693 14.6114 272.828 14.5308C272.962 14.4502 273.019 14.3494 273 14.2285L272.904 14.2486C272.904 14.3293 272.828 14.3897 272.77 14.43C272.578 14.551 272.272 14.5913 272.176 14.5106C272.023 14.3897 272.003 14.0471 272.003 13.8053C272.003 13.7247 272.003 13.6642 271.984 13.6037C271.965 13.3417 271.888 13.12 271.812 12.9185C271.773 12.7976 271.716 12.6565 271.678 12.5154C271.62 12.2937 271.678 12.0116 271.793 11.8302C271.831 11.7899 271.927 11.7294 272.003 11.6891C272.003 11.6891 272.003 11.6891 272.003 11.7093C271.908 11.8504 271.812 11.9914 271.812 12.193C271.812 12.4751 271.908 12.7976 271.984 13.0596V13.0797C272.003 13.1603 272.042 13.2611 272.099 13.3619C272.118 13.503 272.157 13.644 272.176 13.7851C272.214 13.9665 272.272 14.2688 272.425 14.3696C272.674 14.551 272.578 13.9262 272.578 13.7851C272.655 13.8053 272.713 13.8657 272.789 13.8657C272.77 13.7247 272.789 13.5231 272.789 13.3619C272.789 13.0797 272.751 12.7774 272.77 12.5154C272.885 12.5557 272.981 12.6364 273.038 12.7573C273 12.9185 272.962 13.0999 272.962 13.2611C272.962 14.289 273.748 15.1153 274.725 15.1153C275.357 15.1153 275.932 14.7525 276.239 14.2083C276.392 14.289 276.68 14.2688 276.852 14.289C277.006 14.3091 277.255 14.3091 277.312 14.1479C277.389 13.9463 277.312 13.5634 277.312 13.3417C277.312 13.1603 277.312 12.979 277.312 12.7976C277.37 12.7976 277.427 12.7976 277.504 12.7976V14.1277H278.175C278.175 14.2285 278.175 14.3091 278.194 14.4099C278.424 14.4099 278.635 14.43 278.846 14.4099C279.133 14.3897 279.42 14.4099 279.689 14.43C279.861 14.4502 280.149 14.4905 280.321 14.43C280.436 14.3897 280.551 14.1882 280.609 14.0673C280.781 14.0471 280.954 14.1076 281.126 14.1277C281.145 13.6843 281.184 13.2611 281.184 12.8177C281.241 12.8177 281.28 12.8177 281.337 12.8177C281.337 12.7976 281.337 12.7774 281.337 12.7371C281.337 12.9185 281.337 13.0999 281.337 13.2813C281.337 13.503 281.241 13.906 281.337 14.1076C281.356 14.1479 281.375 14.1882 281.414 14.2083H280.954V14.3897H282.602C282.928 14.8129 283.426 15.0749 283.963 15.0749C284.499 15.0749 284.998 14.8129 285.323 14.3897H285.458C285.496 14.4905 285.611 14.5711 285.688 14.6114C285.745 14.6316 285.783 14.6316 285.841 14.6316C285.898 14.6316 285.956 14.6316 285.994 14.6114C286.033 14.6114 286.071 14.6114 286.09 14.6114H286.109C286.358 14.5913 286.512 14.5913 286.627 14.289C286.665 14.168 286.684 14.0471 286.684 13.9262C286.703 13.765 286.722 13.6037 286.799 13.4627C286.933 13.241 287.202 13.1402 287.451 13.0394C287.547 12.9991 287.642 12.9588 287.738 12.9185V13.6239H289.616L290.057 14.5106H290.958V14.3091H291.878L292.108 14.4502L292.223 14.289L291.897 14.0874L291.993 14.0471L291.476 12.858H291.552L291.686 12.717H291.955L292.108 12.8782H292.415L292.683 12.596V11.7899L292.491 11.5884H291.514L291.571 11.4876C291.571 11.4876 291.571 11.4473 291.571 11.4271C291.571 11.3667 291.571 11.2861 291.495 11.2256C291.418 11.1651 291.303 11.1651 291.188 11.1651C291.15 11.1651 291.131 11.1651 291.111 11.1651C290.977 11.145 290.862 11.1248 290.728 11.1047V11.0845H290.632C290.556 11.0644 290.479 11.0442 290.402 11.0241V10.7621C290.46 10.7621 290.517 10.7621 290.575 10.7621C290.69 10.7621 290.805 10.7419 290.843 10.7218L290.747 10.5202C290.709 10.5404 290.536 10.5404 290.402 10.5202V10.4598L290.671 10.1776H291.878L291.974 10.0768H292.165V9.93576H291.016V9.63346H291.15V9.71407H291.303V9.19007H291.15V9.311H291.016V6.73133H290.268V9.95591H289.195V9.85515H289.271V4.75627C289.271 4.75627 289.233 4.6555 289.156 4.57488C289.08 4.51442 288.984 4.47412 288.984 4.47412H287.987V4.27258H288.179V4.05089H287.911V4.11135H287.412V4.23227H287.508V4.37335H285.189V4.1315H283.771V4.35319H282.257V2.64013H283.56V2.49906H283.656V2.43859H283.886V1.16891H283.656V1.10845H283.541V0.947223H283.081V0.826301H282.985V0.705379C282.985 0.705379 283.426 0.685225 284.02 0.745686C284.614 0.806147 284.71 1.06814 284.71 1.06814C284.71 1.06814 284.71 0.423227 284.71 0.241844C284.71 0.22169 284.691 0.201537 284.672 0.22169C284.557 0.302305 284.212 0.503842 284.039 0.544149C283.905 0.564303 283.541 0.564303 283.541 0.564303H283.119C283.119 0.564303 283.177 0.483688 283.177 0.403073C283.177 0.322459 283.1 0.261998 283.1 0.261998L283.043 0.241844L283.004 0.302305H282.736L282.679 0.362766C282.679 0.362766 282.41 0.362766 282.372 0.362766C282.314 0.362766 282.161 0.322459 282.104 0.302305C282.046 0.282151 281.989 0.181383 281.989 0.181383V0.705379C281.989 0.705379 282.046 0.624764 282.123 0.564303C282.199 0.503842 282.391 0.503842 282.391 0.503842H282.583V0.584457V0.745686L282.659 0.826301V0.927069H278.405V0.826301H278.347V0.644917H278.405V0.0201537H278.136V0.665071H278.271V0.806147H278.175V0.927069H275.53H275.281V0.866608H275.357V0.745686H274.667L274.227 0.322459H271.486V0.241844H270.47V0.342612H268.784V0.76584H268.611V0.906915H268.439V0.745686H267.519L267.385 0.38292H267.174V0.282151H266.196V0.403073H265.966L265.832 0.745686H265.123V0.846454H265.2V0.947223H261.577V0.886762H260.313V0.261998H259.316L259.239 0.181383H257.304L257.227 0.261998H256.211V0.846454H254.965L254.908 0.906915H251.746C251.746 0.906915 251.477 0.866608 251.477 0.906915H251.343V0.826301H250.193V0.503842H250.289V0.362766H250.212V0.060461H249.177L249.12 0H247.184L247.108 0.0806147H246.092V0.38292H246.015V0.523995H246.073V0.826301H245.479V0.523995H245.574V0.362766H245.479V0.0806147H244.463L244.405 0.0201537H242.45L242.393 0.0806147H241.358V0.38292H241.281V0.523995H241.377V0.826301H240.745V0.544149H240.841V0.362766H240.745V0.0806147H239.767L239.691 0H237.717L237.678 0.060461H236.605V0.806147H235.129V0.927069H234.995V0.725532H235.091V0.665071H234.631V0.60461H234.363V0.806147H234.516V1.00768C234.516 1.00768 234.458 0.967376 234.382 1.00768C234.286 1.04799 234.248 1.16891 234.248 1.16891V1.93475H233.462L233.404 1.99521V2.05567H233.213V3.32536H233.404L233.443 3.36566H234.018V3.22459H234.228V9.85515H234.286V9.93576H233.443V9.83499H233.347V9.73422H233.232V6.65071H232.408V9.27069H232.274V9.19007H232.178V9.73422H232.274V9.6133H232.408V9.97607H231.354L231.373 10.097H231.545L231.66 10.2179H233.117V11.0845H232.81V11.2659H232.983V11.2054H233.117L233.098 11.3062L232.887 11.4271L232.791 11.5481H232.504V11.8101L232.542 11.8504V11.931H231.948L231.679 11.6488H230.97L230.875 11.7899ZM233.002 9.06915H232.619V6.8724H233.002V9.06915ZM290.613 9.79468H290.939V9.95591H290.613V9.79468ZM290.613 6.95302H290.939V9.12961H290.613V6.95302ZM291.571 12.7774L291.456 12.4953H291.571V12.7774ZM290.881 13.7448L290.996 13.0394V12.5154H291.226L291.916 14.0874H291.092V13.7247H290.881V13.7448ZM290.517 11.2457H290.594C290.805 11.3062 291.016 11.3465 291.226 11.3868C291.265 11.3868 291.303 11.3868 291.341 11.3868C291.399 11.3868 291.495 11.3868 291.514 11.407C291.514 11.407 291.514 11.4271 291.514 11.4473C291.514 11.5077 291.533 11.5884 291.571 11.6488L291.495 11.7093V11.9511H290.996V11.7697H291.111V11.5884H290.766L290.517 11.3264V11.2457ZM285.688 14.43H286.358V14.3696C286.531 14.2688 286.607 13.9665 286.646 13.7851C286.722 13.4828 286.78 13.1805 286.818 12.8782C286.876 12.5154 286.933 11.8705 286.435 11.8907C286.339 11.8907 286.263 11.9108 286.167 11.9511C286.071 11.9914 286.013 12.1124 285.918 12.1325C285.783 12.1728 285.573 12.1124 285.381 12.0317C285.285 11.931 285.189 11.8302 285.093 11.7496C285.055 11.6891 285.036 11.6287 284.998 11.5884C284.94 11.5481 284.844 11.5481 284.768 11.5481C284.557 11.4473 284.308 11.3868 284.058 11.3868C284.039 11.3868 284.001 11.3868 283.982 11.3868C283.905 11.3868 283.828 11.3868 283.752 11.3868C283.599 11.3868 283.426 11.3465 283.273 11.3667C283.119 11.407 283.062 11.5481 282.909 11.6085C282.736 11.669 282.64 11.6287 282.487 11.5682C282.468 11.4876 282.487 11.3868 282.487 11.2861H287.01L287.872 12.193V12.7976C287.777 12.858 287.662 12.8983 287.547 12.9387C287.278 13.0394 287.01 13.1402 286.837 13.4022C286.742 13.5634 286.722 13.7448 286.703 13.906C286.684 14.027 286.684 14.1479 286.646 14.2486C286.569 14.4905 286.473 14.4905 286.224 14.5106H286.205C286.167 14.5106 286.128 14.5106 286.09 14.5308C285.994 14.551 285.898 14.551 285.822 14.5308C285.783 14.5106 285.707 14.4703 285.688 14.43ZM285.573 14.2285C285.745 13.9463 285.841 13.6037 285.841 13.241C285.841 13.0193 285.803 12.7976 285.726 12.596C285.783 12.5557 285.86 12.5154 285.937 12.4751C285.956 12.7573 285.918 13.0394 285.918 13.3216C285.918 13.4828 285.937 13.6642 285.918 13.8254C286.013 13.8254 286.109 13.765 286.186 13.7448C286.186 13.8254 286.148 14.0471 286.167 14.1882H285.573V14.2285ZM284.883 14.2285C284.921 14.2083 284.959 14.1882 284.978 14.168C285.189 13.9665 285.247 13.503 285.343 13.2208C285.4 13.0596 285.458 12.9185 285.553 12.7976C285.592 12.9387 285.611 13.0999 285.611 13.2611C285.611 13.6239 285.496 13.9665 285.304 14.2486H284.883V14.2285ZM282.985 14.43H285.151C284.863 14.7122 284.499 14.8936 284.078 14.8936C283.656 14.8734 283.273 14.7122 282.985 14.43ZM282.525 13.241C282.525 13.1805 282.525 13.0999 282.544 13.0394C282.698 13.1805 282.755 13.382 282.832 13.5836C282.889 13.7045 282.947 14.0673 283.043 14.1277C283.1 14.1882 283.273 14.168 283.369 14.168C283.56 14.168 283.752 14.2083 283.943 14.2285H282.851C282.64 13.9463 282.525 13.6239 282.525 13.241ZM282.372 14.2285C282.429 14.2083 282.468 14.2083 282.525 14.168C282.468 14.0471 282.429 13.9262 282.391 13.7851C282.429 13.9463 282.506 14.0874 282.583 14.2083H282.372V14.2285ZM282.276 12.7976H282.314C282.295 12.8177 282.295 12.858 282.295 12.8983C282.314 12.8983 282.334 12.9185 282.353 12.9185C282.334 13.0193 282.314 13.1402 282.314 13.241C282.314 13.4425 282.334 13.6239 282.391 13.7851C282.353 13.6843 282.334 13.5634 282.295 13.4425C282.257 13.2611 282.238 12.9991 282.276 12.7976ZM280.59 5.13919H279.267V3.20443H280.59V5.13919ZM281.356 4.9175H280.839V3.3052H281.356V4.9175ZM280.264 11.3062H281.279C281.26 11.4876 281.26 11.6488 281.26 11.8101C281.145 11.7899 281.011 11.669 280.896 11.6287C280.762 11.5884 280.628 11.6085 280.494 11.5884C280.34 11.5682 280.283 11.4473 280.264 11.3062ZM278.156 5.54226H280.187V7.21501H278.156V5.54226ZM277.676 3.20443H278.999V5.13919H277.676V3.20443ZM276.603 11.3062H277.427C277.408 11.4473 277.37 11.5682 277.255 11.5884C277.159 11.6085 277.044 11.5884 276.929 11.6287C276.833 11.669 276.737 11.7697 276.622 11.8101C276.622 11.6488 276.622 11.4876 276.603 11.3062ZM273.249 13.241C273.249 13.1805 273.249 13.12 273.249 13.0596C273.268 13.0999 273.288 13.1603 273.288 13.2007C273.364 13.4828 273.422 13.9463 273.594 14.1479C273.728 14.3091 273.997 14.2486 274.169 14.2486C274.418 14.2285 274.667 14.1882 274.917 14.168C274.993 14.168 275.127 14.1882 275.185 14.1277C275.262 14.0471 275.319 13.7045 275.357 13.5836C275.415 13.382 275.472 13.1402 275.607 13.0193C275.76 12.8782 276.028 12.7976 276.22 12.8177C276.239 12.8177 276.277 12.8177 276.296 12.8177C276.335 12.9588 276.354 13.0999 276.354 13.2611C276.354 14.168 275.664 14.8936 274.802 14.8936C273.958 14.8734 273.249 14.1479 273.249 13.241ZM272.31 11.5682C272.329 11.5481 272.329 11.5481 272.348 11.5279C272.502 11.5279 272.636 11.5077 272.77 11.5077C272.77 11.4473 272.77 11.3868 272.751 11.3264H275.626C275.626 11.4271 275.645 11.5077 275.626 11.6085C275.626 11.6085 275.626 11.6085 275.607 11.6085C275.434 11.5077 275.223 11.4473 275.012 11.4271C274.993 11.4271 274.993 11.407 274.974 11.407C274.859 11.3667 274.706 11.407 274.591 11.4271C274.476 11.4271 274.361 11.3667 274.303 11.4876C274.246 11.5077 274.169 11.5279 274.112 11.5682C274.016 11.5682 273.92 11.5682 273.824 11.5884C273.747 11.5884 273.633 11.5682 273.575 11.6287C273.518 11.6891 273.479 11.8504 273.422 11.931C273.307 12.072 272.981 12.2333 272.828 12.1728C272.751 12.1325 272.693 12.0317 272.617 11.9914C272.559 11.9511 272.483 11.931 272.406 11.931C272.003 11.9108 272.042 12.5557 272.099 12.9185V12.9387C272.042 12.717 271.965 12.455 271.965 12.2333C271.965 12.072 272.061 11.9511 272.138 11.8302C272.214 11.7093 272.272 11.6488 272.31 11.5682ZM268.879 0.927069H273.997V3.14397H268.879V0.927069ZM252.455 14.0673H252.838V14.289H252.455V14.0673ZM252.455 11.4271H252.838V13.8456H252.455V11.4271ZM250.097 11.8907C250.04 11.8101 250.002 11.6488 249.944 11.5884C249.887 11.5279 249.772 11.5481 249.695 11.5481C249.599 11.5481 249.503 11.5481 249.407 11.5279C249.35 11.5077 249.273 11.4674 249.216 11.4473C249.158 11.3264 249.043 11.3868 248.928 11.3868C248.813 11.3868 248.66 11.3465 248.545 11.3667C248.526 11.3667 248.526 11.3868 248.507 11.3868C248.296 11.407 248.104 11.4876 247.913 11.5682C247.913 11.5682 247.913 11.5682 247.893 11.5682C247.874 11.4674 247.893 11.3667 247.893 11.2659H249.848V11.407H251.171H251.152C251.132 11.4674 251.171 11.5077 251.209 11.5481C251.247 11.6287 251.286 11.6891 251.343 11.7697C251.439 11.8907 251.516 12.0116 251.516 12.1728C251.516 12.3945 251.458 12.6565 251.381 12.8782V12.858C251.42 12.4953 251.458 11.8504 251.075 11.8705C250.998 11.8705 250.922 11.8907 250.864 11.931C250.787 11.9713 250.73 12.0922 250.653 12.1124C250.538 12.193 250.212 12.0317 250.097 11.8907ZM247.184 13.241C247.184 13.0999 247.203 12.9387 247.242 12.7976C247.261 12.7976 247.299 12.7976 247.318 12.7976C247.51 12.7774 247.778 12.858 247.932 12.9991C248.066 13.1402 248.123 13.3619 248.181 13.5634C248.219 13.6843 248.277 14.0471 248.353 14.1076C248.411 14.168 248.545 14.1479 248.622 14.1479C248.871 14.168 249.12 14.2285 249.369 14.2285C249.542 14.2285 249.81 14.289 249.944 14.1277C250.117 13.9262 250.155 13.4627 250.251 13.1805C250.27 13.12 250.289 13.0797 250.289 13.0394C250.289 13.0999 250.289 13.1603 250.289 13.2208C250.289 14.1277 249.599 14.8533 248.737 14.8533C247.874 14.8734 247.184 14.1479 247.184 13.241ZM246.111 11.2861H246.935C246.916 11.4674 246.916 11.6488 246.916 11.8101C246.82 11.7899 246.724 11.669 246.609 11.6287C246.513 11.5884 246.398 11.6085 246.283 11.5884C246.169 11.5682 246.13 11.4271 246.111 11.2861ZM242.278 11.2861H243.294C243.275 11.4271 243.217 11.5682 243.064 11.6085C242.93 11.6287 242.795 11.6085 242.661 11.6488C242.527 11.6891 242.412 11.7899 242.297 11.8302C242.297 11.6488 242.278 11.4674 242.278 11.2861ZM241.262 13.4425C241.243 13.5634 241.205 13.6843 241.166 13.7851C241.224 13.6037 241.243 13.4223 241.243 13.241C241.243 13.12 241.224 13.0193 241.205 12.9185C241.224 12.9185 241.243 12.8983 241.262 12.8983C241.262 12.858 241.243 12.8379 241.243 12.7976H241.281C241.32 12.9991 241.3 13.2611 241.262 13.4425ZM240.975 14.2285C241.051 14.0874 241.128 13.9463 241.166 13.8053C241.128 13.9262 241.09 14.0471 241.032 14.1882C241.071 14.2083 241.128 14.2285 241.186 14.2486H240.975V14.2285ZM239.633 14.2285C239.825 14.2083 240.016 14.1882 240.208 14.168C240.304 14.168 240.457 14.1882 240.534 14.1277C240.63 14.0471 240.687 13.7045 240.745 13.5836C240.821 13.4022 240.879 13.1805 241.032 13.0394C241.032 13.0999 241.051 13.1805 241.051 13.241C241.051 13.6037 240.936 13.9463 240.745 14.2285H239.633ZM238.387 14.43H240.553C240.266 14.7122 239.901 14.8936 239.48 14.8936C239.058 14.8734 238.675 14.7122 238.387 14.43ZM237.927 13.241C237.927 13.0797 237.947 12.9387 237.985 12.7774C238.062 12.8983 238.138 13.0394 238.196 13.2007C238.292 13.4828 238.368 13.9463 238.56 14.1479C238.598 14.168 238.617 14.1882 238.656 14.2083H238.234C238.042 13.9463 237.927 13.6239 237.927 13.241ZM237.391 14.2285C237.41 14.0673 237.372 13.8456 237.372 13.7851C237.448 13.8053 237.544 13.8657 237.64 13.8657C237.602 13.7247 237.64 13.5231 237.64 13.3619C237.64 13.0797 237.602 12.7774 237.621 12.5154C237.697 12.5356 237.774 12.5759 237.832 12.6364C237.755 12.8379 237.717 13.0394 237.717 13.2813C237.717 13.644 237.812 13.9866 237.985 14.2688H237.391V14.2285ZM235.762 12.2131L236.567 11.2861H241.051C241.051 11.3868 241.07 11.4876 241.051 11.5884C240.898 11.6287 240.802 11.6891 240.63 11.6287C240.476 11.5682 240.419 11.4271 240.266 11.3868C240.112 11.3465 239.94 11.3868 239.786 11.407C239.71 11.407 239.614 11.3868 239.556 11.407C239.537 11.407 239.499 11.407 239.48 11.407C239.231 11.407 238.981 11.4674 238.771 11.5682C238.694 11.5682 238.598 11.5682 238.541 11.6085C238.502 11.6488 238.464 11.7093 238.445 11.7697C238.33 11.8504 238.234 11.9511 238.157 12.0519C237.985 12.1325 237.755 12.193 237.621 12.1527C237.525 12.1124 237.448 12.0116 237.372 11.9713C237.295 11.931 237.199 11.9108 237.103 11.9108C236.605 11.8907 236.662 12.5356 236.72 12.8983C236.758 13.2007 236.835 13.5231 236.892 13.8053C236.931 13.9866 237.027 14.289 237.18 14.3897V14.4502H237.851C237.812 14.4905 237.755 14.551 237.717 14.5711C237.64 14.6114 237.544 14.5913 237.448 14.5711C237.41 14.5711 237.372 14.5711 237.333 14.551H237.314C237.065 14.5308 236.988 14.5308 236.892 14.289C236.854 14.1882 236.835 14.0673 236.835 13.9463C236.816 13.7851 236.797 13.6037 236.701 13.4425C236.547 13.1805 236.26 13.0797 235.992 12.979C235.915 12.9387 235.819 12.9185 235.743 12.8782V12.2131H235.762Z" fill="#FFCA62"/>
</svg>
