<!-- icon666.com - MILLIONS vector ICONS FREE --><svg width="32px" height="32px" viewBox="0 0 48 60" xmlns="http://www.w3.org/2000/svg"><g id="Page-1" fill="none" fill-rule="evenodd"><g id="041---Train-Conductor" fill="rgb(0,0,0)" fill-rule="nonzero"><path id="Shape" d="m13.411 38.112c-.024.018-.047.036-.069.055l-.466.314c-1.0879956.664044-2.2245567 1.2450274-3.4 1.738-2.10330751.789071-4.03014528 1.9856134-5.67 3.521-3.801 3.989-3.806 9.926-3.806 14.26 0 1.1045695.8954305 2 2 2h44c1.1045695 0 2-.8954305 2-2 0-4.334-.005-10.271-3.806-14.26-1.6392643-1.5351641-3.5654032-2.7316947-5.668-3.521-1.1684264-.489525-2.298582-1.0658007-3.381-1.724l-.485-.327c-.023-.02-.046-.038-.071-.056-1.3381761-.8430497-2.2704996-2.199584-2.578-3.751 3.315281-3.6488365 5.101413-8.4322619 4.989-13.361-.0047594-.9140046-.0635285-1.8269293-.176-2.734 2.1489313-2.4204309 3.8124583-5.2314521 4.9-8.28.2748894-.78435875.0360329-1.65698129-.6-2.192-4.8373305-4.03184951-10.6538712-6.71433695-16.861-7.776-.1741771-.02400079-.3508229-.02400079-.525 0-6.2092848 1.0605186-12.0280488 3.74307678-16.867 7.776-.63603287.53501871-.87488941 1.40764125-.6 2.192 1.08754171 3.0485479 2.75106874 5.8595691 4.9 8.28-.1108001.9071698-.1678996 1.8200941-.171 2.734-.1120301 4.9277098 1.6732829 9.7101435 4.987 13.359-.3071818 1.5515294-1.2386347 2.9085723-2.576 3.753zm15.789 11.488 2.365 3.154-6.165 4.11c.813-3.9 2.967-11.834 7.6-15.942v5.46l-3.448 1.723c-.2668712.1325112-.4607513.3771254-.5288231.6672042-.0680718.2900787-.003244.595403.1768231.8327958zm-10.227-.829c-.0677654-.2890802-.2604882-.533098-.526-.666l-3.447-1.723v-5.46c4.631 4.108 6.786 12.046 7.6 15.942l-6.165-4.11 2.365-3.154c.1776032-.2370714.2409624-.5406827.173-.829zm-13.719-3.652c1.46677924-1.3426332 3.18056306-2.3873417 5.046-3.076.895-.4 1.813-.819 2.7-1.312v6.269c-.0020788.3808256.2123306.7297741.553.9l2.928 1.463-2.281 3.037c-.1649196.2198357-.2320981.4978544-.1857527.7687388.0463454.2708843.2021296.5107565.4307527.6632612l6.255 4.168h-18.7c0-4.99.253-9.73 3.254-12.881zm32.451-3.076c1.8636627.689237 3.5757016 1.733917 5.041 3.076 3.001 3.151 3.254 7.891 3.254 12.881h-18.7l6.253-4.169c.2286399-.1521847.3846212-.3917105.431338-.6623651.0467167-.2706547-.0199439-.5486099-.184338-.7686349l-2.28-3.042 2.927-1.458c.3406694-.1702259.5550788-.5191744.553-.9v-6.268c.887.49 1.807.906 2.705 1.311zm-24.965-25.043h22.519c-2.8776272 3.1833436-6.968298 4.9998202-11.2595 4.9998202s-8.3818728-1.8164766-11.2595-4.9998202zm11.254-15c5.8352783.9997849 11.3027982 3.52362712 15.849 7.316-.7267102 2.0189042-1.7219873 3.9307512-2.959 5.684h-25.769c-1.23545346-1.7508094-2.23033447-3.6595145-2.958-5.675 4.5414455-3.79431574 10.0048405-6.32126958 15.837-7.325zm-10.994 19c0-.316.019-.634.034-.951 3.0575845 2.5992294 6.953254 4.0028214 10.966 3.951 4.012746.0518214 7.9084155-1.3517706 10.966-3.951.015.317.034.635.034.951 0 8.271-4.935 15-11 15s-11-6.729-11-15zm11 17c2.2777437-.0223796 4.4882922-.7745338 6.307-2.146.4303505 1.1546778 1.1369308 2.186395 2.058 3.005-4.687 3.658-7.165 10.489-8.365 15.149-1.2-4.66-3.678-11.491-8.366-15.149.9206556-.8205175 1.6247739-1.8553997 2.05-3.013 1.8202812 1.3759572 4.0343002 2.1310232 6.316 2.154z"></path><path id="Shape" d="m21 10.63h6c.5522847 0 1-.4477153 1-1 0-.55228475-.4477153-1-1-1h-6c-.5522847 0-1 .44771525-1 1 0 .5522847.4477153 1 1 1z"></path></g></g></svg>