<svg width="19" height="15" viewBox="0 0 19 15" fill="none" xmlns="http://www.w3.org/2000/svg">
<path d="M0.976855 0C1.25212 0 1.45232 0 1.65251 0C6.65738 0 11.6622 0 16.6671 0C18.2311 0 18.9944 0.764092 18.9944 2.35491C18.9944 3.20668 19.0069 4.07098 18.9944 4.92276C18.9819 6.17537 18.1561 7.00209 16.9174 7.01461C16.2917 7.02714 15.6786 7.01461 15.003 7.01461C15.003 7.99165 15.003 8.89353 15.003 9.80793C14.9905 12.3132 13.3013 14.0167 10.8114 14.0292C8.93459 14.0292 7.05777 14.0418 5.18094 14.0292C2.71605 14.0167 1.00188 12.3257 1.00188 9.87056C0.964343 6.60125 0.976855 3.35699 0.976855 0ZM15.0405 2.0167C15.0405 2.99374 15.0405 3.9833 15.0405 4.97286C15.6912 4.97286 16.3168 4.97286 16.9424 4.97286C16.9424 3.97077 16.9424 2.99374 16.9424 2.0167C16.2917 2.0167 15.6912 2.0167 15.0405 2.0167Z" fill="#E5E5E5"/>
</svg>
